HIERARCHY
ROOT hips
{
  OFFSET 0 10.432787522119774 1.3615615910897314
  CHANNELS 6 Xposition Yposition Zposition Yrotation Xrotation Zrotation
  JOINT spine
  {
    OFFSET -7.042016674e-31 0.605849736412771 0
    CHANNELS 3 Yrotation Xrotation Zrotation
    JOINT chest
    {
      OFFSET 0 1.2699780403367527 0
      CHANNELS 3 Yrotation Xrotation Zrotation
      JOINT upperChest
      {
        OFFSET 0 1.217802795781373 0
        CHANNELS 3 Yrotation Xrotation Zrotation
        JOINT neck
        {
          OFFSET 0 1.524881793055447 0
          CHANNELS 3 Yrotation Xrotation Zrotation
          JOINT head
          {
            OFFSET 0 0.8197776686196176 0
            CHANNELS 3 Yrotation Xrotation Zrotation
            JOINT leftEye
            {
              OFFSET 0.27991711184325396 0.7377279215890094 0.1770057770610815
              CHANNELS 3 Yrotation Xrotation Zrotation
              End Site
              {
                OFFSET 0.27991711184325396 0.7377279215890094 0.1770057770610815
              }
            }
            JOINT rightEye
            {
              OFFSET -0.27991715118228666 0.7377278742074458 0.1770060973723161
              CHANNELS 3 Yrotation Xrotation Zrotation
              End Site
              {
                OFFSET -0.27991715118228666 0.7377278742074458 0.1770060973723161
              }
            }
          }
        }
        JOINT leftShoulder
        {
          OFFSET 0.4148696499235711 1.1670497283493415 0
          CHANNELS 3 Yrotation Xrotation Zrotation
          JOINT leftUpperArm
          {
            OFFSET 0.9737923520503171 0 0
            CHANNELS 3 Yrotation Xrotation Zrotation
            JOINT leftLowerArm
            {
              OFFSET 2.526933563002016 0 0
              CHANNELS 3 Yrotation Xrotation Zrotation
              JOINT leftHand
              {
                OFFSET 2.4263767061081287 0 0
                CHANNELS 3 Yrotation Xrotation Zrotation
                JOINT leftIndexProximal
                {
                  OFFSET 0.7243194303238094 0.08170604153373495 0.2036005707489045
                  CHANNELS 3 Yrotation Xrotation Zrotation
                  JOINT leftIndexIntermediate
                  {
                    OFFSET 0.365490110639793 -0.010566615565509085 -0.014147873305413783
                    CHANNELS 3 Yrotation Xrotation Zrotation
                    JOINT leftIndexDistal
                    {
                      OFFSET 0.22502693978020916 -0.007863122621388996 -0.007567729919505994
                      CHANNELS 3 Yrotation Xrotation Zrotation
                      End Site
                      {
                        OFFSET 0.22502693978020916 -0.007863122621388996 -0.007567729919505994
                      }
                    }
                  }
                }
                JOINT leftLittleProximal
                {
                  OFFSET 0.6720313867214986 0.0817059792423902 -0.3230034999786495
                  CHANNELS 3 Yrotation Xrotation Zrotation
                  JOINT leftLittleIntermediate
                  {
                    OFFSET 0.3458364459000005 5.4765410650858826e-8 2.495506794542024e-7
                    CHANNELS 3 Yrotation Xrotation Zrotation
                    JOINT leftLittleDistal
                    {
                      OFFSET 0.19925722030351722 0.003096736260194355 0.0038306323169590983
                      CHANNELS 3 Yrotation Xrotation Zrotation
                      End Site
                      {
                        OFFSET 0.19925722030351722 0.003096736260194355 0.0038306323169590983
                      }
                    }
                  }
                }
                JOINT leftMiddleProximal
                {
                  OFFSET 0.7300446999180792 0.08170730820222194 0.0226618663244387
                  CHANNELS 3 Yrotation Xrotation Zrotation
                  JOINT leftMiddleIntermediate
                  {
                    OFFSET 0.40758107610000327 -0.0000012383582372876845 3.721937498757377e-7
                    CHANNELS 3 Yrotation Xrotation Zrotation
                    JOINT leftMiddleDistal
                    {
                      OFFSET 0.2514495697999991 7.561061998728746e-8 -1.6055895105115958e-7
                      CHANNELS 3 Yrotation Xrotation Zrotation
                      End Site
                      {
                        OFFSET 0.2514495697999991 7.561061998728746e-8 -1.6055895105115958e-7
                      }
                    }
                  }
                }
                JOINT leftRingProximal
                {
                  OFFSET 0.7217264995692599 0.08170598771388815 -0.1504338786787948
                  CHANNELS 3 Yrotation Xrotation Zrotation
                  JOINT leftRingIntermediate
                  {
                    OFFSET 0.3780872700000014 6.409956210262635e-8 3.723059401883333e-7
                    CHANNELS 3 Yrotation Xrotation Zrotation
                    JOINT leftRingDistal
                    {
                      OFFSET 0.21812031524459563 -0.00271347557699686 -0.004991351593452126
                      CHANNELS 3 Yrotation Xrotation Zrotation
                      End Site
                      {
                        OFFSET 0.21812031524459563 -0.00271347557699686 -0.004991351593452126
                      }
                    }
                  }
                }
                JOINT leftThumbProximal
                {
                  OFFSET 0.10793670302222891 -0.165278914300383 -0.07775358168875651
                  CHANNELS 3 Yrotation Xrotation Zrotation
                  JOINT leftThumbIntermediate
                  {
                    OFFSET 0.40355763830204994 -0.017484092948475194 0.31777731504028983
                    CHANNELS 3 Yrotation Xrotation Zrotation
                    JOINT leftThumbDistal
                    {
                      OFFSET 0.2318770514136803 -0.018507879151339335 0.21396002480314588
                      CHANNELS 3 Yrotation Xrotation Zrotation
                      End Site
                      {
                        OFFSET 0.2318770514136803 -0.018507879151339335 0.21396002480314588
                      }
                    }
                  }
                }
              }
            }
          }
        }
        JOINT rightShoulder
        {
          OFFSET -0.4148696499235712 1.1670497283493415 0
          CHANNELS 3 Yrotation Xrotation Zrotation
          JOINT rightUpperArm
          {
            OFFSET -0.9737923520503168 0 0
            CHANNELS 3 Yrotation Xrotation Zrotation
            JOINT rightLowerArm
            {
              OFFSET -2.5269335630020175 0 0
              CHANNELS 3 Yrotation Xrotation Zrotation
              JOINT rightHand
              {
                OFFSET -2.4263767061081274 0 0
                CHANNELS 3 Yrotation Xrotation Zrotation
                JOINT rightIndexProximal
                {
                  OFFSET -0.7243194303238094 0.08170604153373495 0.2036005707489045
                  CHANNELS 3 Yrotation Xrotation Zrotation
                  JOINT rightIndexIntermediate
                  {
                    OFFSET -0.365490110639793 -0.010566615565509085 -0.014147873305413783
                    CHANNELS 3 Yrotation Xrotation Zrotation
                    JOINT rightIndexDistal
                    {
                      OFFSET -0.22502693978020916 -0.007863122621388996 -0.007567729919505994
                      CHANNELS 3 Yrotation Xrotation Zrotation
                      End Site
                      {
                        OFFSET -0.22502693978020916 -0.007863122621388996 -0.007567729919505994
                      }
                    }
                  }
                }
                JOINT rightLittleProximal
                {
                  OFFSET -0.6720313867214986 0.0817059792423902 -0.3230034999786495
                  CHANNELS 3 Yrotation Xrotation Zrotation
                  JOINT rightLittleIntermediate
                  {
                    OFFSET -0.3458364459000005 5.4765410650858826e-8 2.495506794542024e-7
                    CHANNELS 3 Yrotation Xrotation Zrotation
                    JOINT rightLittleDistal
                    {
                      OFFSET -0.19925722030351722 0.003096736260194355 0.0038306323169590983
                      CHANNELS 3 Yrotation Xrotation Zrotation
                      End Site
                      {
                        OFFSET -0.19925722030351722 0.003096736260194355 0.0038306323169590983
                      }
                    }
                  }
                }
                JOINT rightMiddleProximal
                {
                  OFFSET -0.7300446999180792 0.08170730820222194 0.0226618663244387
                  CHANNELS 3 Yrotation Xrotation Zrotation
                  JOINT rightMiddleIntermediate
                  {
                    OFFSET -0.40758107610000327 -0.0000012383582372876845 3.721937498757377e-7
                    CHANNELS 3 Yrotation Xrotation Zrotation
                    JOINT rightMiddleDistal
                    {
                      OFFSET -0.2514495697999991 7.561061998728746e-8 -1.6055895105115958e-7
                      CHANNELS 3 Yrotation Xrotation Zrotation
                      End Site
                      {
                        OFFSET -0.2514495697999991 7.561061998728746e-8 -1.6055895105115958e-7
                      }
                    }
                  }
                }
                JOINT rightRingProximal
                {
                  OFFSET -0.7217264995692599 0.08170598771388815 -0.1504338786787948
                  CHANNELS 3 Yrotation Xrotation Zrotation
                  JOINT rightRingIntermediate
                  {
                    OFFSET -0.3780872700000014 6.409956210262635e-8 3.723059401883333e-7
                    CHANNELS 3 Yrotation Xrotation Zrotation
                    JOINT rightRingDistal
                    {
                      OFFSET -0.21812031524459563 -0.00271347557699686 -0.004991351593452126
                      CHANNELS 3 Yrotation Xrotation Zrotation
                      End Site
                      {
                        OFFSET -0.21812031524459563 -0.00271347557699686 -0.004991351593452126
                      }
                    }
                  }
                }
                JOINT rightThumbProximal
                {
                  OFFSET -0.10793670302222891 -0.165278914300383 -0.07775358168875651
                  CHANNELS 3 Yrotation Xrotation Zrotation
                  JOINT rightThumbIntermediate
                  {
                    OFFSET -0.40355763830204994 -0.017484092948475194 0.31777731504028983
                    CHANNELS 3 Yrotation Xrotation Zrotation
                    JOINT rightThumbDistal
                    {
                      OFFSET -0.2318770514136803 -0.018507879151339335 0.21396002480314588
                      CHANNELS 3 Yrotation Xrotation Zrotation
                      End Site
                      {
                        OFFSET -0.2318770514136803 -0.018507879151339335 0.21396002480314588
                      }
                    }
                  }
                }
              }
            }
          }
        }
      }
    }
  }
  JOINT leftUpperLeg
  {
    OFFSET 0.8486251400000001 -0.44215692923454897 0
    CHANNELS 3 Yrotation Xrotation Zrotation
    JOINT leftLowerLeg
    {
      OFFSET 0 -4.1014783730019015 0
      CHANNELS 3 Yrotation Xrotation Zrotation
      JOINT leftFoot
      {
        OFFSET -0.0002543926242001143 -4.7729227580453255 0.007402839656626761
        CHANNELS 3 Yrotation Xrotation Zrotation
        JOINT leftToes
        {
          OFFSET 0 -0.7027876860119923 1.2062921852216233
          CHANNELS 3 Yrotation Xrotation Zrotation
          End Site
          {
            OFFSET 0 -0.7027876860119923 1.2062921852216233
          }
        }
      }
    }
  }
  JOINT rightUpperLeg
  {
    OFFSET -0.8486251400000001 -0.44215692923454897 0
    CHANNELS 3 Yrotation Xrotation Zrotation
    JOINT rightLowerLeg
    {
      OFFSET 0 -4.1014783730019015 0
      CHANNELS 3 Yrotation Xrotation Zrotation
      JOINT rightFoot
      {
        OFFSET 0.0002543926242001143 -4.7729227580453255 0.007402839656626761
        CHANNELS 3 Yrotation Xrotation Zrotation
        JOINT rightToes
        {
          OFFSET 0 -0.7027876860119923 1.2062921852216233
          CHANNELS 3 Yrotation Xrotation Zrotation
          End Site
          {
            OFFSET 0 -0.7027876860119923 1.2062921852216233
          }
        }
      }
    }
  }
}
MOTION
Frames: 4
Frame Time: 0.03333333333333333
0.010581490583717823 -0.215846642297997 0.052112776786088943 -0.11389812266832927 -1.5211862736461699 -1.2252524368279956 -0.1325975763898518 0.9682948821107995 0.17742170478185393 -4.9477483318228765 2.0410356109742076 0.26745033796501616 0 0 0 0.8628232526276705 -2.7499635001985947 -1.4801486828805177 -1.4834283018761623 5.574484091479825 3.5696488357180693 0 0 0 0 0 0 7.3935006158002565 -0.34773290837453685 0.841065267308123 -25.273565061040802 1.2741675267188164 -65.37221884942996 -29.109551080319427 -3.422628078056675 1.2727257797003486 11.763621147152632 9.605274978217805 -11.650335371391286 0.9424844498305898 -0.2722555398374868 -21.129706177089794 3.577590636859963 1.1436364747097794 -35.44660961575279 1.8385110535478044 0.28047723557766757 -17.34796856123036 6.200600633256831 3.4147446037369362 -46.62201704561613 -1.8437531003721384 0.41506563514931816 -21.560426554949856 0.8229690705763255 0.055175460587172126 -7.671404344712412 1.9572395507622538 0.0902399096526049 -27.29632441666477 2.5000328207204725 0.5295280388213254 -23.916349095320815 1.5793235100162253 0.20570647645639467 -14.841764629909939 1.5498632163560475 -0.5589974194726689 -33.47612938183748 1.8307287609282215 0.2780503551608779 -17.272449340112168 1.178298151510839 0.11363323802411464 -11.018053680023426 14.151262770059065 -11.25115873549775 4.295080133255322 12.827260897250426 9.556164805473873 4.4605258020508565 2.492706146610458 -0.11734167809162602 2.837786500817482 2.3519230863410767 0.99158784669961 -5.1446552586550025 26.160949640498593 -3.4532029486095777 67.48623824775353 26.919149226497506 -3.1925676194935093 -1.1180871218708592 -14.042775323569268 -0.15211997745521452 1.331233211931335 -4.82590573720118 1.3278403982594664 11.090208317216293 -3.8855669698250956 1.3586047673135788 38.532409861142234 -0.8716986403921038 0.06124527074405803 8.039555071562674 -6.391237308842892 3.8814316907418767 37.64544858612275 -1.8505634901158856 0.28103593041490077 17.269549832293414 -0.842857610923244 0.057265175979142276 7.771912200137847 -6.58502377109524 2.7227948990942554 20.385597525266736 -3.042043047880714 0.7925691579732634 29.20012464689447 -0.9280680448743149 -1.5268755926227038 5.3502700369301515 -4.484255121034704 1.864046461187152 29.493621151747842 -2.3372613635053243 0.45476501304793304 22.018525868225662 -1.4059971139568497 -1.7009891569869793 8.406625529604806 -22.318708392469425 7.818987387614995 -8.519161526393301 1.2261129299973232 4.366049587730443 0.10413341383264056 0.9510207154329706 -2.163142763284513 -2.9639274970695744 4.066479472453368 -9.95734484553271 2.2276112956498877 10.10254434384843 22.2436143589606 4.668697014946728 2.685013370832025 -10.700866587363342 -4.149768667606795 0.000008197830259784583 -0.46420655908781533 -0.0000018134597813472562 -13.61089911268273 -10.425821814612371 -3.6603370687111094 -4.475614039321124 18.430420173377644 -2.7415400117490436 -4.307335536499109 -5.38624200645092 6.892541157851068 -0.000004431895423787546 -0.000024334615413603234 0.0000034726303611941716
0.015327369794249535 -0.21699963454653215 0.05098320171236992 -0.11881104951217666 -1.5269372996794706 -1.252824551200981 -0.12899859585977128 0.9780415805641123 0.17788128443247533 -4.93879207300468 2.077170367550135 0.2596718753484204 0 0 0 0.8574758785483484 -2.743784043441686 -1.4672832585429816 -1.4871369849863418 5.560541079425868 3.5810228097821097 0 0 0 0 0 0 7.358049708681394 -0.34501871235535503 0.8516752035431244 -25.313981314357076 1.255449101442935 -65.37754406041998 -29.104711658278497 -3.4221121189414045 1.2723628450539328 11.759214092564171 9.618863160341437 -11.659585214376994 0.946761965420774 -0.27109423454123316 -21.1555527821964 3.5733978446462613 1.1406606957659775 -35.39898757137754 1.836108929292164 0.27973057492111114 -17.32458912975819 6.188565524392186 3.399500210404739 -46.654643061242375 -1.843752460356614 0.41505765749248485 -21.56047094475413 0.8230138314313153 0.05517774509974583 -7.67169027553019 1.955149443605563 0.08776379633821807 -27.323793250573985 2.496842453644623 0.5281309388230567 -23.88398550569127 1.5776080283260838 0.20523475014333697 -14.825391087340936 1.540438438515673 -0.5684406130627794 -33.495689331479646 1.8293401165615124 0.2776233299150016 -17.258703468728186 1.1774996892380685 0.11347745070813506 -11.010626157823365 14.152544990246538 -11.251768088636346 4.29729857863324 12.82617261000381 9.553189971276275 4.459640915267762 2.4926997493538057 -0.11719057317997117 2.837384703988456 2.417276567226492 1.0039868403118504 -5.104519738362865 26.18502647766115 -3.4510368363661295 67.45251817447325 26.93609264040671 -3.1943889857386125 -1.1192418761493663 -14.033196206909693 -0.1550182559103753 1.3140911171517835 -4.811810508191955 1.3236007041275595 11.09975279979931 -3.8853952077293634 1.358458303964011 38.53028067190207 -0.8705508275663413 0.06108187971940895 8.028945344362377 -6.371677483397545 3.8659233208032755 37.70649779824931 -1.8493544792428294 0.28066528147787845 17.257887098547833 -0.8397199475467928 0.05682861728504187 7.742810150048489 -6.570391799255566 2.7192990232929635 20.43879308317555 -3.0397485911217195 0.7912880016030881 29.176092164329233 -0.9263685664285779 -1.5329173411013293 5.328438970040151 -4.465972375936902 1.8511271992706544 29.531051995015876 -2.334466105063349 0.4536533648302477 21.99085544799733 -1.4049182630501234 -1.7048981785592017 8.391573153076978 -22.321749422667345 7.8051395807423605 -8.550024658650614 1.2323471171536535 4.351841397052244 0.11250941369587278 0.9503918802167465 -2.1622885946446124 -2.962816891450761 4.076610288704762 -10.003130604575093 2.232526754821889 10.094091914010557 22.335005967957734 4.668222062830569 2.6909340528583594 -10.748393903059153 -4.1217158955482835 0.000003286620271497823 -0.45907958864577364 8.113312663731499e-7 -13.637153675731224 -10.441278826904096 -3.6538460467469616 -4.482819354677455 18.450365639974294 -2.759769970675086 -4.27437605316239 -5.3778478366282325 6.9209701864935695 0.000016780291395487633 -0.000021117145535173527 -0.0000027782984809019704
0.02472875453531742 -0.21919785384584856 0.049081847071647644 -0.12696949136964922 -1.5384195405718888 -1.3069888516461248 -0.12170688243386701 0.9968030543531474 0.17836158252175413 -4.919580704866364 2.146952087960038 0.24355899126959782 0 0 0 0.8469269663854745 -2.7285133275889426 -1.4417092704761165 -1.4943647236345072 5.538855608048418 3.603679755376832 0 0 0 0 0 0 7.288474500851932 -0.3407179640491776 0.8842515631614429 -25.377186953180576 1.2172440811103191 -65.39836793496558 -29.09375697953523 -3.4209978791309763 1.271556491938431 11.74788014689617 9.649318190662905 -11.67274917659766 0.9560226686055369 -0.2684648493676568 -21.209515694620116 3.5649997152955804 1.1347048773967081 -35.303414673997814 1.8312643555752257 0.2782205249257675 -17.277393868197763 6.164737406395247 3.369525510429543 -46.72744090995682 -1.8437390200305037 0.4150753470793869 -21.5604645923048 0.8230694810855707 0.05517638439736615 -7.6722672139334085 1.9516188468669222 0.083057764089495 -27.382611177735264 2.4904453678250538 0.5253098447674676 -23.81905074103939 1.5741761177797122 0.204326622668125 -14.7923882414439 1.5220258192788125 -0.587279339715664 -33.538533829593966 1.8265164296268765 0.2767406510379398 -17.2313168346101 1.1759295463075596 0.11317888281195677 -10.995580032530482 14.155407495742095 -11.252837071257169 4.3015720337414365 12.823878335252433 9.546803169709264 4.457885657035036 2.492152170682554 -0.11717919395429204 2.8365278147709088 2.5410245411723382 1.0272891304216483 -5.0301623120068095 26.22406895151034 -3.4485273170434008 67.39363230251041 26.96597174075826 -3.1975494486389735 -1.1213364847877056 -14.0138913443759 -0.17347107502623715 1.2827637284548772 -4.788883816759508 1.3172833427307644 11.126199906438822 -3.884656768113636 1.3578778949903751 38.521489164152555 -0.8677584722891661 0.060690911199631256 8.003031182717885 -6.335577730374557 3.8364284203884664 37.809298283480196 -1.8480574643202785 0.28027606275360184 17.24542227578022 -0.8340412249265029 0.056057612617610844 7.690116056712562 -6.5445577617540955 2.712776976940851 20.5295685613933 -3.0361307027559845 0.7892711964086906 29.13794104600161 -0.9224088049179314 -1.5423409526361118 5.284861361433538 -4.432430814627546 1.8271263575753807 29.590810108379067 -2.330544098730831 0.45206220121817453 21.951810248993127 -1.40233007433177 -1.7102942898861946 8.363581034715853 -22.329706670284864 7.782470808459831 -8.609498260757873 1.2457149822550344 4.320943670210186 0.12994503442708502 0.9504723682480877 -2.1615228549747987 -2.9607504954078716 4.097267511600258 -10.08945506475403 2.2424602032701744 10.07369142870572 22.512032152967617 4.664002150182034 2.7034195912329007 -10.842540881344652 -4.0652224244786535 -4.325321890397095e-9 -0.44984237434387103 -8.537287099903161e-7 -13.689103408426028 -10.4669119892223 -3.6419231343665985 -4.499682753564582 18.484628075876117 -2.7966418063730485 -4.20832316620937 -5.360836887716705 6.978223593752237 -0.0000015610649892044512 -0.000027552083663589023 8.740102180234362e-7
0.033985935151576996 -0.2212015235846181 0.047776345163583755 -0.13224725708349175 -1.5501984246890956 -1.359249293672607 -0.11429222371509234 1.0142331796014357 0.1780756413044415 -4.898061104948278 2.2123630471648323 0.2264369381784232 0 0 0 0.8368079736986387 -2.7078605713121138 -1.4168198941514396 -1.5011798520973385 5.528362495067552 3.626079804742676 0 0 0 0 0 0 7.235699111219043 -0.33805192902647246 0.91864063818149 -25.412853127851783 1.1858328180032256 -65.41820841040017 -29.080602526653042 -3.419608662743643 1.2706205984059535 11.735901061204098 9.685145864279557 -11.67824690393734 0.9664738736370776 -0.2653477680048281 -21.265842752229336 3.556683437933366 1.1288410832562923 -35.20881713669786 1.8263949317622183 0.2766973215200502 -17.230326298454965 6.141472040166805 3.3406010965155692 -46.81280240097839 -1.8437522470181058 0.415059044911064 -21.560454141699733 0.8231281186390454 0.055185125576134184 -7.672745479450547 1.94917629775683 0.07886188264517287 -27.4469318395165 2.4841094258242236 0.5225069487929023 -23.754831229794977 1.5707705452562069 0.20344031997063852 -14.759422092680666 1.5044356040087046 -0.6059521683243353 -33.587472067506035 1.8237605843220412 0.27588609372200196 -17.204389591183993 1.1743244060485163 0.11285396794661705 -10.980491350758822 14.158625451537583 -11.25363097622747 4.30561546593384 12.821413590938889 9.539922146203951 4.456092827837403 2.49075291120565 -0.11770926844028598 2.835620871853113 2.6402688391892855 1.045780944917176 -4.974749313290083 26.25651039630728 -3.450571753680568 67.36087104294356 26.987760197161357 -3.1998766193079287 -1.1228035470805928 -13.996584182756004 -0.22548908560111167 1.2619308681224588 -4.77600303070557 1.3151035103657278 11.166559421069175 -3.8831907720341308 1.3567013849712384 38.504375101592295 -0.8640425009099126 0.060175331682098494 7.9685118165171405 -6.304780893374578 3.8094527542320002 37.87326658219664 -1.8490853467694126 0.28058812075909484 17.255217418669066 -0.8295733314137816 0.05545975400366171 7.648653997440529 -6.524968621600303 2.7069079772937124 20.587789365385404 -3.03448260181305 0.7883434834249187 29.120550322395253 -0.9173736282307471 -1.5465266043818506 5.242086134118905 -4.4041980497247915 1.80647962910938 29.6202760817225 -2.3299411299154764 0.45181139740747855 21.94596619386745 -1.3990018500898542 -1.710692539304662 8.339858208885607 -22.3398915500161 7.767563480117223 -8.663204315867699 1.2596802548185482 4.288371246405871 0.1476024685604428 0.9522678643477057 -2.161976531653036 -2.9589313777599817 4.11822327168708 -10.164234131267241 2.2523563170943706 10.046766379418523 22.674935134788456 4.652931827547943 2.7173963823188716 -10.933006208588909 -4.007361956962499 -0.000006578270317350437 -0.4427061576530515 -0.0000024763835979264315 -13.73949916231571 -10.483340899615763 -3.6321585595250188 -4.521119244929011 18.50940743962719 -2.834464451130391 -4.142271894741044 -5.343400663843525 7.036450100276035 -0.0000061149395194692245 -0.00005558161407952648 -0.0000050440775968786605
